<?xml version="1.0" encoding="UTF-8"?> <svg xmlns="http://www.w3.org/2000/svg" width="135" height="135" viewBox="0 0 135 135"><g id="Group_13684" data-name="Group 13684" transform="translate(-1252 -100)"><g id="Group_13645" data-name="Group 13645" transform="translate(-323 -577)"><circle id="Ellipse_8789" data-name="Ellipse 8789" cx="67.5" cy="67.5" r="67.5" transform="translate(1575 677)" fill="#f17bd9" opacity="0.07"></circle><circle id="Ellipse_8790" data-name="Ellipse 8790" cx="50" cy="50" r="50" transform="translate(1593 695)" fill="#f17bd9" opacity="0.2"></circle></g><g id="Group_13648" data-name="Group 13648" transform="translate(610.695 -1054.924)"><g id="Group_2914" data-name="Group 2914" transform="translate(673.305 1188.924)"><path id="Path_22632" data-name="Path 22632" d="M0,0H69L67.714,64.714H45.286l-2.159-9.52H0Z" transform="translate(1 1)" fill="#fff"></path><line id="Line_734" data-name="Line 734" x2="69.013" transform="translate(0.001 14.769)" fill="none" stroke="#c5c8cc" stroke-linecap="round" stroke-linejoin="round" stroke-width="2"></line><g id="Group_2913" data-name="Group 2913"><path id="Path_7761" data-name="Path 7761" d="M715.037,1245.346H678.353a5.045,5.045,0,0,1-5.047-5.045V1192.63a3.708,3.708,0,0,1,3.708-3.706h61.6a3.708,3.708,0,0,1,3.708,3.706v34.9" transform="translate(-673.305 -1188.924)" fill="none" stroke="#344154" stroke-linecap="round" stroke-linejoin="round" stroke-width="3"></path><circle id="Ellipse_8119" data-name="Ellipse 8119" cx="0.649" cy="0.649" r="0.649" transform="translate(7.979 6.805)" stroke-width="3" stroke="#c5c8cc" stroke-linecap="round" stroke-linejoin="round" fill="none"></circle><path id="Path_7762" data-name="Path 7762" d="M680.486,1192.175a.65.65,0,1,0-.651.648A.651.651,0,0,0,680.486,1192.175Z" transform="translate(-663.806 -1184.721)" fill="none" stroke="#c5c8cc" stroke-linecap="round" stroke-linejoin="round" stroke-width="3"></path><circle id="Ellipse_8120" data-name="Ellipse 8120" cx="0.649" cy="0.649" r="0.649" transform="translate(22.783 6.805)" stroke-width="3" stroke="#c5c8cc" stroke-linecap="round" stroke-linejoin="round" fill="none"></circle></g></g><path id="Path_7760" data-name="Path 7760" d="M705.051,1206.34a3.116,3.116,0,0,0-2.532.667h0a1.6,1.6,0,0,1-2.615-1.237v-8.175h-8.622a1,1,0,0,0-.8,1.6l.01.013a3.119,3.119,0,1,1-4.867.078l.081-.107a1,1,0,0,0-.819-1.585H676.27v23.632h8.738a.891.891,0,0,0,.688-1.457l-.011-.013a3.118,3.118,0,1,1,4.867-.076l-.079.1a.91.91,0,0,0,.743,1.441H699.9v-8.12a1.622,1.622,0,0,1,2.568-1.323l.126.094a3.119,3.119,0,1,0,2.453-5.537Z" transform="translate(4.789 14.006)" fill="none" stroke="#c5c8cc" stroke-linecap="round" stroke-linejoin="round" stroke-width="2"></path><path id="Path_7763" data-name="Path 7763" d="M698.008,1219.38a32.318,32.318,0,0,1-2.417,4.2h7.438v-17.122h-.5A58.034,58.034,0,0,1,698.008,1219.38Z" transform="translate(35.998 28.322)" fill="#f17bd9"></path><path id="Path_7759" data-name="Path 7759" d="M705.75,1209.445a1.375,1.375,0,0,1-1.125-2.173l.084-.11a2.85,2.85,0,1,0-4.446.071l.016.018a1.342,1.342,0,0,1-1.038,2.194H690.71v8.62a1.307,1.307,0,0,0,2.1,1.054l.018-.016a2.85,2.85,0,1,1,.071,4.446l-.107-.081a1.315,1.315,0,0,0-2.079,1.072v8.612h23.5v-23.707Z" transform="translate(28.113 22.042)" fill="none" stroke="#344154" stroke-linecap="round" stroke-linejoin="round" stroke-width="3"></path></g></g></svg> 