<svg xmlns="http://www.w3.org/2000/svg" width="135" height="135" viewBox="0 0 135 135">
  <g id="Group_13766" data-name="Group 13766" transform="translate(-1575 -677)">
    <circle id="Ellipse_8789" data-name="Ellipse 8789" cx="67.5" cy="67.5" r="67.5" transform="translate(1575 677)" fill="red" opacity="0.07"/>
    <circle id="Ellipse_8790" data-name="Ellipse 8790" cx="50" cy="50" r="50" transform="translate(1593 695)" fill="red" opacity="0.2"/>
    <g id="Group_13768" data-name="Group 13768" transform="translate(990 -1038)">
      <path id="Path_22670" data-name="Path 22670" d="M7988.833-1495h55.333s2.917-1.75,3.25-1.917a17.4,17.4,0,0,0,2.083-3.583c0-.25-1.083-4.417-1.083-4.417l-3.667-2.667a44.257,44.257,0,0,0-3.333-3.667,40.686,40.686,0,0,1-3.417-2.667h-4.25l-3.667,1.917s2.25-7.75,2.25-8.083-5-8.417-5-8.417l.917-13.833s-2.75-8.5-2.75-8.917-4.5-8.917-4.5-8.917l-4.5-4.667-5.5,7.667-4.833,11.583-1.25,9.083,1.25,9.25s-3.25,2.75-3.417,3.083-1,5.5-1,5.833,1,5.417,1,5.417l-4.667-1.333-4.25.333-.833,2.667s-3.583.75-3.583,1-1.083,3.5-1.083,3.5l-3.333,1.833-1,4.417s1.583,3.5,1.667,3.583S7988.833-1495,7988.833-1495Z" transform="translate(-7364 3312)" fill="#fff"/>
      <path id="Path_7341" data-name="Path 7341" d="M341.032,1280.372c8.7,7.837.8,18.923.8,18.923-4.428,6.643-4.55,6.661-4.764,7.693a5.665,5.665,0,0,0,5.5,6.481h14.195a6.191,6.191,0,0,0,6.231-5.572,6.068,6.068,0,0,0-4.506-6.366,4.092,4.092,0,0,0,.034-.477,3.726,3.726,0,0,0-4.693-3.607l0-.057a3.661,3.661,0,0,0-6.442-2.384" transform="translate(322.389 503.532)" fill="none" stroke="#344154" stroke-linecap="round" stroke-miterlimit="10" stroke-width="3"/>
      <path id="Path_7342" data-name="Path 7342" d="M343.847,1280.372c-8.7,7.837-.8,18.923-.8,18.923,4.428,6.643,4.55,6.661,4.761,7.693a5.664,5.664,0,0,1-5.5,6.481H328.12a6.189,6.189,0,0,1-6.231-5.572,6.065,6.065,0,0,1,4.506-6.366,3.59,3.59,0,0,1-.034-.477,3.726,3.726,0,0,1,4.693-3.607l0-.057a3.661,3.661,0,0,1,6.442-2.384" transform="translate(298.132 503.532)" fill="none" stroke="#344154" stroke-linecap="round" stroke-miterlimit="10" stroke-width="3"/>
      <path id="Path_7339" data-name="Path 7339" d="M333.052,1286.837c.023,7.891,3.661,9.822,3.661,9.822s3.635-1.931,3.659-9.822" transform="translate(316.093 513.915)" fill="none" stroke="#f63c3c" stroke-linecap="round" stroke-miterlimit="10" stroke-width="2"/>
      <line id="Line_597" data-name="Line 597" y2="4.493" transform="translate(652.823 1798.361)" fill="none" stroke="#f63c3c" stroke-linecap="round" stroke-miterlimit="10" stroke-width="2"/>
      <path id="Path_7340" data-name="Path 7340" d="M333.824,1312.22a44.4,44.4,0,0,1-2.52-7.252c-.086-.341-.164-.68-.24-1.019-5-22.529,10.437-37.738,10.437-37.738s15.435,15.208,10.44,37.738c-.076.339-.154.677-.24,1.019a44.163,44.163,0,0,1-2.52,7.252" transform="translate(311.302 480.789)" fill="none" stroke="#344154" stroke-linecap="round" stroke-miterlimit="10" stroke-width="3"/>
      <path id="Path_7343" data-name="Path 7343" d="M342.87,1280.084a5.206,5.206,0,1,1-5.2-5.2A5.206,5.206,0,0,1,342.87,1280.084Z" transform="translate(315.141 494.712)" fill="none" stroke="#c5c8cc" stroke-linecap="round" stroke-miterlimit="10" stroke-width="2"/>
      <path id="Path_7344" data-name="Path 7344" d="M345.081,1269.886a10.634,10.634,0,0,1-13.147,0" transform="translate(314.297 486.691)" fill="none" stroke="#344154" stroke-linecap="round" stroke-miterlimit="10" stroke-width="2"/>
      <path id="Path_7345" data-name="Path 7345" d="M331.482,1292.594l-.034-.138a6.31,6.31,0,0,1,4.751-7.513,14.3,14.3,0,0,1,6.559,0,6.314,6.314,0,0,1,4.748,7.516l-.031.135" transform="translate(313.263 510.261)" fill="none" stroke="#344154" stroke-linecap="round" stroke-miterlimit="10" stroke-width="3"/>
    </g>
  </g>
</svg>
