<svg xmlns="http://www.w3.org/2000/svg" width="135" height="135" viewBox="0 0 135 135">
  <g id="Group_13755" data-name="Group 13755" transform="translate(-1575 -677)">
    <circle id="Ellipse_8789" data-name="Ellipse 8789" cx="67.5" cy="67.5" r="67.5" transform="translate(1575 677)" fill="#00d2d2" opacity="0.07"/>
    <circle id="Ellipse_8790" data-name="Ellipse 8790" cx="50" cy="50" r="50" transform="translate(1593 695)" fill="#00d2d2" opacity="0.2"/>
    <g id="Group_13757" data-name="Group 13757" transform="translate(1127.901 -663.191)">
      <path id="Path_22666" data-name="Path 22666" d="M506.839,1418.419h7.138l1.912,4.835h18.227v15.55H506.2l-.765-14.148Z" fill="#fff"/>
      <g id="Group_13753" data-name="Group 13753" transform="matrix(0.966, 0.259, -0.259, 0.966, 479.645, 1410.919)">
        <g id="Group_5893" data-name="Group 5893">
          <g id="Group_5892" data-name="Group 5892">
            <g id="Group_5891" data-name="Group 5891">
              <path id="Path_12599" data-name="Path 12599" d="M2074.153,683.622a14.448,14.448,0,0,1-6.427,2.491,14.6,14.6,0,0,1-8.119-1.2,14.778,14.778,0,0,1-8.271-12.037" transform="translate(-2048.381 -668.679)" fill="none" stroke="#344154" stroke-linecap="round" stroke-miterlimit="10" stroke-width="2"/>
              <path id="Path_12600" data-name="Path 12600" d="M2055.7,673.651l-3.139-2.627-2.526,3.018" transform="translate(-2050.033 -671.023)" fill="none" stroke="#344154" stroke-linecap="round" stroke-miterlimit="10" stroke-width="2"/>
            </g>
          </g>
        </g>
      </g>
      <g id="Group_13751" data-name="Group 13751" transform="matrix(-0.574, -0.819, 0.819, -0.574, 540.016, 1426.332)">
        <g id="Group_5893-2" data-name="Group 5893">
          <g id="Group_5892-2" data-name="Group 5892">
            <g id="Group_5891-2" data-name="Group 5891">
              <path id="Path_12599-2" data-name="Path 12599" d="M2074.153,683.622a14.448,14.448,0,0,1-6.427,2.491,14.6,14.6,0,0,1-8.119-1.2,14.778,14.778,0,0,1-8.271-12.037" transform="translate(-2048.381 -668.679)" fill="none" stroke="#344154" stroke-linecap="round" stroke-miterlimit="10" stroke-width="2"/>
              <path id="Path_12600-2" data-name="Path 12600" d="M2055.7,673.651l-3.139-2.627-2.526,3.018" transform="translate(-2050.033 -671.023)" fill="none" stroke="#344154" stroke-linecap="round" stroke-miterlimit="10" stroke-width="2"/>
            </g>
          </g>
        </g>
      </g>
      <g id="Group_13754" data-name="Group 13754" transform="translate(-447 160)">
        <g id="Group_13731" data-name="Group 13731" transform="translate(952.619 1258.419)">
          <path id="Path_12593" data-name="Path 12593" d="M2065.239,679.124v-5.068a2.06,2.06,0,0,1,2.06-2.06h6.715a2.061,2.061,0,0,1,2.06,2.06v5.068" transform="translate(-2056.43 -658.253)" fill="none" stroke="#c5c8cc" stroke-linecap="round" stroke-miterlimit="10" stroke-width="2"/>
          <path id="Path_12591" data-name="Path 12591" d="M2061.356,667.478v14.863a1.218,1.218,0,0,0,1.264,1.166h25.925a1.218,1.218,0,0,0,1.263-1.166V668.457a1.022,1.022,0,0,0-1.062-.979H2071.49" transform="translate(-2061.356 -662.636)" fill="none" stroke="#344154" stroke-linecap="round" stroke-miterlimit="10" stroke-width="3"/>
          <path id="Path_12592" data-name="Path 12592" d="M2061.356,670.78v-4.842h7.6c.864,0,1.626.783,1.88,1.927l.651,2.914H2066.6" transform="translate(-2061.356 -665.938)" fill="none" stroke="#344154" stroke-linecap="round" stroke-miterlimit="10" stroke-width="3"/>
        </g>
        <path id="Path_22657" data-name="Path 22657" d="M2069.962,668.723l6.434,6.434v-6.434Z" transform="translate(-1098.15 597.683)" fill="#00d2d2"/>
      </g>
      <g id="Group_13752" data-name="Group 13752" transform="translate(-418 152)">
        <g id="Group_13728" data-name="Group 13728" transform="translate(-115 180)">
          <path id="Path_22667" data-name="Path 22667" d="M1588.656,861.222a5.68,5.68,0,0,0-5.7,5.49l-.01.217-.2.077a9.373,9.373,0,0,0,3.4,18.105h30.994a12.352,12.352,0,1,0,0-24.7h-.23l-.107-.215a13.882,13.882,0,0,0-26.368.963l-.087.309-.312-.079A5.674,5.674,0,0,0,1588.656,861.222Z" transform="translate(-564.281 192.082)" fill="#fff"/>
          <g id="Group_13725" data-name="Group 13725" transform="translate(109.365 18)">
            <line id="Line_7441" data-name="Line 7441" y2="9.541" transform="translate(930.083 1057.53) rotate(180)" fill="none" stroke="#c5c8cc" stroke-linecap="round" stroke-linejoin="round" stroke-width="2"/>
            <line id="Line_7442" data-name="Line 7442" y2="6.432" transform="translate(938.961 1059.191) rotate(180)" fill="none" stroke="#c5c8cc" stroke-linecap="round" stroke-linejoin="round" stroke-width="2"/>
            <line id="Line_7443" data-name="Line 7443" y2="6.276" transform="translate(921.275 1059.168) rotate(180)" fill="none" stroke="#c5c8cc" stroke-linecap="round" stroke-linejoin="round" stroke-width="2"/>
            <circle id="Ellipse_8801" data-name="Ellipse 8801" cx="2.64" cy="2.64" r="2.64" transform="translate(932.723 1047.989) rotate(180)" stroke-width="2" stroke="#c5c8cc" stroke-linecap="round" stroke-linejoin="round" fill="none"/>
            <circle id="Ellipse_8802" data-name="Ellipse 8802" cx="2.64" cy="2.64" r="2.64" transform="translate(941.601 1052.759) rotate(180)" stroke-width="2" stroke="#c5c8cc" stroke-linecap="round" stroke-linejoin="round" fill="none"/>
            <circle id="Ellipse_8803" data-name="Ellipse 8803" cx="2.64" cy="2.64" r="2.64" transform="translate(923.915 1052.892) rotate(180)" stroke-width="2" stroke="#c5c8cc" stroke-linecap="round" stroke-linejoin="round" fill="none"/>
          </g>
          <path id="Path_22656" data-name="Path 22656" d="M1588.656,861.222a5.68,5.68,0,0,0-5.7,5.49l-.01.217-.2.077a9.373,9.373,0,0,0,3.4,18.105h30.994a12.352,12.352,0,1,0,0-24.7h-.23l-.107-.215a13.882,13.882,0,0,0-26.368.963l-.087.309-.312-.079A5.674,5.674,0,0,0,1588.656,861.222Z" transform="translate(-564.281 192.082)" fill="none" stroke="#344154" stroke-linecap="round" stroke-linejoin="round" stroke-width="3"/>
        </g>
        <path id="Path_22658" data-name="Path 22658" d="M1713.914,409.385l-.612-1.984a9.062,9.062,0,0,0-8.68-6.394c-.188,0-.377.006-.567.017a9.009,9.009,0,0,0-5.33,2.19,15.453,15.453,0,0,1,2.228.226c5.371.961,10.209,5.245,11.06,10.635,6.923-3.9,14.158,3.281,14.158,3.281s-1.06-4.383-4.406-6.748S1713.914,409.385,1713.914,409.385Z" transform="translate(-778.62 826.482)" fill="#00d2d2" stroke="rgba(0,0,0,0)" stroke-width="1"/>
      </g>
    </g>
  </g>
</svg>
