<?xml version="1.0" encoding="UTF-8"?> <svg xmlns="http://www.w3.org/2000/svg" width="135" height="135" viewBox="0 0 135 135"><g id="Group_13685" data-name="Group 13685" transform="translate(-1521 -100)"><g id="Group_13646" data-name="Group 13646" transform="translate(-54 -577)"><circle id="Ellipse_8789" data-name="Ellipse 8789" cx="67.5" cy="67.5" r="67.5" transform="translate(1575 677)" fill="#8e0dfc" opacity="0.07"></circle><circle id="Ellipse_8790" data-name="Ellipse 8790" cx="50" cy="50" r="50" transform="translate(1593 695)" fill="#8e0dfc" opacity="0.2"></circle></g><g id="Group_13649" data-name="Group 13649" transform="translate(-601.399 -440.58)"><path id="Path_22633" data-name="Path 22633" d="M2159.97,576.918v37.5l2.667,3h12.5l-2.833,6.5h36.167l-2.667-6.5h11l2.5-1.667,1.333-3.5v-36l-2.167-3.333h-56.833Z" fill="#fff"></path><g id="Group_5962" data-name="Group 5962" transform="translate(2158.97 572.58)"><path id="Path_22634" data-name="Path 22634" d="M58.066,59.909l4.362,7.714-1.857,2.857H.286l-.857-2.857L5.857,57.2H56.714Z" fill="#fff"></path><path id="Path_12728" data-name="Path 12728" d="M2215.715,572.58a4.519,4.519,0,0,1,4.52,4.519v35.995a4.519,4.519,0,0,1-4.52,4.519H2164.1a4.518,4.518,0,0,1-4.517-4.519V577.1a4.518,4.518,0,0,1,4.517-4.519Z" transform="translate(-2158.854 -572.58)" fill="none" stroke="#344154" stroke-linecap="round" stroke-linejoin="round" stroke-width="3"></path><path id="Path_12729" data-name="Path 12729" d="M2167.091,590.277l-2.757,6.969h36.455l-2.757-6.969" transform="translate(-2151.509 -545.243)" fill="none" stroke="#344154" stroke-linecap="round" stroke-linejoin="round" stroke-width="3"></path><path id="Path_12730" data-name="Path 12730" d="M2215.85,595.092l5.278,9.525a2.148,2.148,0,0,1-1.878,3.189h-57.806a2.148,2.148,0,0,1-1.878-3.189l5.279-9.525Z" transform="translate(-2159.294 -537.806)" fill="none" stroke="#344154" stroke-linecap="round" stroke-linejoin="round" stroke-width="3"></path><path id="Path_12731" data-name="Path 12731" d="M2160.881,602.565l3.431-6.192h47.165l3.431,6.192Z" transform="translate(-2156.842 -535.826)" fill="#8e0dfc"></path></g><g id="Group_5964" data-name="Group 5964" transform="translate(2169.97 579.347)"><g id="Group_5963" data-name="Group 5963" transform="translate(27.217 2.814)"><line id="Line_2754" data-name="Line 2754" y1="11.658" x2="6.785" transform="translate(5.342 0.001)" fill="none" stroke="#c5c8cc" stroke-linecap="round" stroke-linejoin="round" stroke-width="2"></line><path id="Path_12732" data-name="Path 12732" d="M2181.975,584.523h0a2.136,2.136,0,0,1-2.2-2.073v-1.436a2.137,2.137,0,0,1,2.2-2.073h0a2.137,2.137,0,0,1,2.2,2.073v1.436A2.136,2.136,0,0,1,2181.975,584.523Z" transform="translate(-2167.55 -571.865)" fill="none" stroke="#c5c8cc" stroke-linecap="round" stroke-linejoin="round" stroke-width="2"></path><path id="Path_12733" data-name="Path 12733" d="M2178.348,581.993h0a2.136,2.136,0,0,1-2.2-2.073v-1.436a2.138,2.138,0,0,1,2.2-2.073h0a2.138,2.138,0,0,1,2.2,2.073v1.436A2.136,2.136,0,0,1,2178.348,581.993Z" transform="translate(-2176.152 -576.411)" fill="none" stroke="#c5c8cc" stroke-linecap="round" stroke-linejoin="round" stroke-width="2"></path></g><path id="Path_12734" data-name="Path 12734" d="M2169.445,607.31V575.239h10.149V607.31" transform="translate(-2159.296 -575.239)" fill="none" stroke="#c5c8cc" stroke-linecap="round" stroke-linejoin="round" stroke-width="2"></path><path id="Path_12735" data-name="Path 12735" d="M2165.457,600.99V579.661h10.149" transform="translate(-2165.457 -569.041)" fill="none" stroke="#c5c8cc" stroke-linecap="round" stroke-linejoin="round" stroke-width="2"></path><path id="Path_12736" data-name="Path 12736" d="M2173.434,583.142h10.149V596.11" transform="translate(-2153.135 -564.162)" fill="none" stroke="#c5c8cc" stroke-linecap="round" stroke-linejoin="round" stroke-width="2"></path></g></g></g></svg> 