<svg xmlns="http://www.w3.org/2000/svg" width="135" height="135" viewBox="0 0 135 135"><g transform="translate(-1315 -84)"><circle cx="67.5" cy="67.5" r="67.5" transform="translate(1315 84)" fill="#06dcfe" opacity="0.07"/><circle cx="50" cy="50" r="50" transform="translate(1333 102)" fill="#06dcfe" opacity="0.2"/><path d="M2087.038,1558.674h23.136a2.7,2.7,0,0,0,2.7-2.7v-64.263a2.7,2.7,0,0,0-2.7-2.692h-62.746a2.692,2.692,0,0,0-2.692,2.692v64.263a2.693,2.693,0,0,0,2.692,2.7h21.6" transform="translate(-696.737 -1371.896)" fill="#fff" stroke="#344154" stroke-linecap="round" stroke-linejoin="round" stroke-width="3"/><path d="M2048.846,1492.077a.64.64,0,1,0-.64.64A.64.64,0,0,0,2048.846,1492.077Z" transform="translate(-691.69 -1367.591)" fill="none" stroke="#c5c8cc" stroke-linecap="round" stroke-linejoin="round" stroke-width="2"/><path d="M2051.473,1492.077a.642.642,0,1,0-.64.64A.641.641,0,0,0,2051.473,1492.077Z" transform="translate(-687.009 -1367.591)" fill="none" stroke="#c5c8cc" stroke-linecap="round" stroke-linejoin="round" stroke-width="2"/><path d="M2054.1,1492.077a.642.642,0,1,0-.643.64A.64.64,0,0,0,2054.1,1492.077Z" transform="translate(-682.325 -1367.591)" fill="none" stroke="#c5c8cc" stroke-linecap="round" stroke-linejoin="round" stroke-width="2"/><line x2="57.548" transform="translate(1353.292 131.709)" stroke-width="2" stroke="#c5c8cc" stroke-linecap="round" stroke-linejoin="round" fill="none"/><path d="M2231.456,1638.675h5.592a12.158,12.158,0,0,0,6.894-2.73,11.8,11.8,0,0,0,4.339-9.23,12.113,12.113,0,0,0-4.712-9.528,11.712,11.712,0,0,0-7.269-2.456,11.946,11.946,0,0,0-4.025.7,12.207,12.207,0,0,0-5.627-6.936,11.645,11.645,0,0,0-5.825-1.509,12.129,12.129,0,0,0-7.844,2.924,11.807,11.807,0,0,0-4.14,9.06,11.992,11.992,0,0,0,.279,2.568c-.11,0-.22-.017-.333-.017a8.735,8.735,0,0,0-6.408,2.869,8.369,8.369,0,0,0-2.183,5.723,8.789,8.789,0,0,0,1.574,4.958,8.446,8.446,0,0,0,7.017,3.634h8.36" transform="translate(-842.576 -1465.861)" fill="none" stroke="#06dcfe" stroke-linecap="round" stroke-linejoin="round" stroke-miterlimit="10" stroke-width="2"/><path d="M2211.739,1635.64v-6.778H2206.6l8.412-9.927,8.41,9.927h-5.142v6.778" transform="translate(-833.347 -1448.64)" fill="none" stroke="#06dcfe" stroke-linecap="round" stroke-linejoin="round" stroke-miterlimit="10" stroke-width="2"/><path d="M2224.707,1620.33a8.927,8.927,0,0,0-8.916-8.916,9.068,9.068,0,0,0-1.365.108,27.153,27.153,0,0,1,3.608,4.132,17.392,17.392,0,0,1,3.275,8.906,13.1,13.1,0,0,1-.183,2.912A8.925,8.925,0,0,0,2224.707,1620.33Z" transform="translate(-822.068 -1459.476)" fill="#c5c8cc"/></g></svg>