<?xml version="1.0" encoding="UTF-8"?> <svg xmlns="http://www.w3.org/2000/svg" width="135" height="135" viewBox="0 0 135 135"><g id="Group_13683" data-name="Group 13683" transform="translate(-100 -100)"><g id="Group_13637" data-name="Group 13637" transform="translate(-1475 -577)"><circle id="Ellipse_8789" data-name="Ellipse 8789" cx="67.5" cy="67.5" r="67.5" transform="translate(1575 677)" fill="#008aff" opacity="0.07"></circle><circle id="Ellipse_8790" data-name="Ellipse 8790" cx="50" cy="50" r="50" transform="translate(1593 695)" fill="#008aff" opacity="0.2"></circle></g><g id="Group_13638" data-name="Group 13638" transform="translate(-893.051 -797.738)"><circle id="Ellipse_8791" data-name="Ellipse 8791" cx="34.5" cy="34.5" r="34.5" transform="translate(1026.97 929.918)" fill="#fff"></circle><line id="Line_2214" data-name="Line 2214" x2="69.99" transform="translate(1026.051 964.737)" fill="none" stroke="#c5c8cc" stroke-linecap="round" stroke-linejoin="round" stroke-width="3"></line><line id="Line_2215" data-name="Line 2215" y2="35.032" transform="translate(1061.046 929.742)" fill="none" stroke="#c5c8cc" stroke-linecap="round" stroke-linejoin="round" stroke-width="3"></line><path id="Path_11282" data-name="Path 11282" d="M1043.817,931.569c-5.31,4.926-11.648,14.151-11.648,30.141" transform="translate(10.119 3.028)" fill="none" stroke="#c5c8cc" stroke-linecap="round" stroke-linejoin="round" stroke-width="3"></path><path id="Path_11283" data-name="Path 11283" d="M1054.4,943.586c-19.326,0-24.334-10.138-24.334-10.138" transform="translate(6.644 6.136)" fill="none" stroke="#c5c8cc" stroke-linecap="round" stroke-linejoin="round" stroke-width="3"></path><line id="Line_2216" data-name="Line 2216" y1="35.032" transform="translate(1061.056 964.737)" fill="none" stroke="#c5c8cc" stroke-linecap="round" stroke-linejoin="round" stroke-width="3"></line><path id="Path_11285" data-name="Path 11285" d="M1042.369,971.914c5.021-5.162,10.454-14.169,10.454-28.975" transform="translate(26.989 21.833)" fill="none" stroke="#c5c8cc" stroke-linecap="round" stroke-linejoin="round" stroke-width="3"></path><path id="Path_11286" data-name="Path 11286" d="M1042.6,971.888c-5.013-5.165-10.43-14.167-10.43-28.949" transform="translate(10.119 21.833)" fill="none" stroke="#c5c8cc" stroke-linecap="round" stroke-linejoin="round" stroke-width="3"></path><path id="Path_11287" data-name="Path 11287" d="M1063.575,958.735s-5.008-10.138-24.334-10.138" transform="translate(21.815 31.191)" fill="none" stroke="#c5c8cc" stroke-linecap="round" stroke-linejoin="round" stroke-width="3"></path><path id="Path_11288" data-name="Path 11288" d="M1030.068,958.735s5.008-10.138,24.334-10.138" transform="translate(6.644 31.191)" fill="none" stroke="#c5c8cc" stroke-linecap="round" stroke-linejoin="round" stroke-width="3"></path><path id="Path_11289" data-name="Path 11289" d="M1041.1,931.141v26.94h26.4A31.779,31.779,0,0,0,1041.1,931.141Z" transform="translate(24.895 2.32)" fill="#008aff"></path><path id="Path_11281" data-name="Path 11281" d="M1026.051,964.772a35,35,0,1,1,70,.053" transform="translate(0.001 0)" fill="none" stroke="#344154" stroke-linecap="round" stroke-linejoin="round" stroke-width="3"></path><path id="Path_11284" data-name="Path 11284" d="M1096.05,942.939a35,35,0,1,1-70,0" transform="translate(0.001 21.833)" fill="none" stroke="#344154" stroke-linecap="round" stroke-linejoin="round" stroke-width="3"></path></g></g></svg> 