<?xml version="1.0" encoding="UTF-8"?> <svg xmlns="http://www.w3.org/2000/svg" width="135" height="135" viewBox="0 0 135 135"><g id="Group_13706" data-name="Group 13706" transform="translate(-1773 -534)"><g id="Group_13688" data-name="Group 13688"><circle id="Ellipse_8793" data-name="Ellipse 8793" cx="67.5" cy="67.5" r="67.5" transform="translate(1773 534)" fill="#89afff" opacity="0.07"></circle><circle id="Ellipse_8794" data-name="Ellipse 8794" cx="50" cy="50" r="50" transform="translate(1791 552)" fill="#89afff" opacity="0.2"></circle></g><g id="Group_4565" data-name="Group 4565" transform="translate(1131.808 -245.489)"><path id="Path_22645" data-name="Path 22645" d="M683.685,863.095c6.286-.034,5.286,0,5.286,0l1.429,7.395,4.571,6.571,8.429,4.572h6.428l6.286-2,4.714-3.714,3.572-4.572,1.286-5v-3.252H735.97l3.571-2.177,1.572-4.428-.572-42.429-2.571-2.571H679.685s-2.286,2-2.429,2.571,0,44.714,0,44.714S677.4,863.129,683.685,863.095Z" fill="#fff"></path><path id="Path_22644" data-name="Path 22644" d="M707.378,856.4H704.1l-2.937,3.272s-1.125,3.875-1.125,4.063,1.5,3.313,1.5,3.313l4.125,2.813,3.688.375,2.625-1.812a22.477,22.477,0,0,0,1.813-2.187c0-.187.625-3,.625-3h-7.375Z" fill="#89afff"></path><line id="Line_1815" data-name="Line 1815" x2="62.992" transform="translate(677.595 825.106)" fill="none" stroke="#c5c8cc" stroke-linecap="round" stroke-linejoin="round" stroke-width="2"></line><path id="Path_10344" data-name="Path 10344" d="M690.774,823.337v18.531H709.3A18.531,18.531,0,0,0,690.774,823.337Z" transform="translate(21.029 16.801)" fill="none" stroke="#c5c8cc" stroke-linecap="round" stroke-linejoin="round" stroke-width="2"></path><path id="Path_10346" data-name="Path 10346" d="M691.63,829.392a6.994,6.994,0,1,0,8.7,8.7" transform="translate(13.744 27.004)" fill="none" stroke="#c5c8cc" stroke-linecap="round" stroke-linejoin="round" stroke-width="2"></path><g id="Group_4564" data-name="Group 4564" transform="translate(677.595 811.624)"><path id="Path_10340" data-name="Path 10340" d="M681.669,814.681a.592.592,0,1,0-.592.595A.593.593,0,0,0,681.669,814.681Z" transform="translate(-673.203 -807.878)" fill="none" stroke="#c5c8cc" stroke-linecap="round" stroke-linejoin="round" stroke-width="2"></path><path id="Path_10341" data-name="Path 10341" d="M684.35,814.681a.592.592,0,1,0-.592.595A.593.593,0,0,0,684.35,814.681Z" transform="translate(-669.128 -807.878)" fill="none" stroke="#c5c8cc" stroke-linecap="round" stroke-linejoin="round" stroke-width="2"></path><path id="Path_10342" data-name="Path 10342" d="M687.031,814.681a.592.592,0,1,0-.592.595A.593.593,0,0,0,687.031,814.681Z" transform="translate(-665.053 -807.878)" fill="none" stroke="#c5c8cc" stroke-linecap="round" stroke-linejoin="round" stroke-width="2"></path><path id="Path_10339" data-name="Path 10339" d="M730.334,863.126h5.647a4.608,4.608,0,0,0,4.606-4.606V815.008a3.387,3.387,0,0,0-3.387-3.384H680.979a3.385,3.385,0,0,0-3.384,3.384V858.52a4.607,4.607,0,0,0,4.606,4.606h2.785" transform="translate(-677.595 -811.624)" fill="none" stroke="#344154" stroke-linecap="round" stroke-linejoin="round" stroke-width="3"></path></g><path id="Path_10343" data-name="Path 10343" d="M700.589,824.7a18.529,18.529,0,1,0,18.531,18.531H700.589Z" transform="translate(6.787 19.868)" fill="none" stroke="#344154" stroke-linecap="round" stroke-linejoin="round" stroke-width="3"></path><path id="Path_10345" data-name="Path 10345" d="M691.967,836.872V824.646a15.571,15.571,0,0,1,12.226,12.226Z" transform="translate(22.843 18.791)" fill="#89afff"></path></g></g></svg> 